PathFileType	4	(X/Y/Z)	c:\Git\powerlifing_model_clean\simulations\HC835B\Session1\HC835B_OGR_0005\marker_experimental.trc
DataRate	CameraRate	NumFrames	NumMarkers	Units	OrigDataRate	OrigDataStartFrame	OrigNumFrames
240.000000	240.000000	4	38	mm	240.000000	109	218
Frame#	Time	RPSI			LPSI			RASI			LASI			RTH1			RTH2			RTH3			RTH4			RSK1			RSK2			RSK3			RSK4			RCAL1			RCAL2			RCAL3			RST			RPT			RTN			RFMB			RSMB			RVMB			RFMH			RSMH			RVMH			RPM			LTH1			LTH2			LTH3			LTH4			LSK1			LSK2			LSK3			LSK4			LCAL1			LCAL2			LCAL3			LFMH			LVMH			
		X1	Y1	Z1	X2	Y2	Z2	X3	Y3	Z3	X4	Y4	Z4	X5	Y5	Z5	X6	Y6	Z6	X7	Y7	Z7	X8	Y8	Z8	X9	Y9	Z9	X10	Y10	Z10	X11	Y11	Z11	X12	Y12	Z12	X13	Y13	Z13	X14	Y14	Z14	X15	Y15	Z15	X16	Y16	Z16	X17	Y17	Z17	X18	Y18	Z18	X19	Y19	Z19	X20	Y20	Z20	X21	Y21	Z21	X22	Y22	Z22	X23	Y23	Z23	X24	Y24	Z24	X25	Y25	Z25	X26	Y26	Z26	X27	Y27	Z27	X28	Y28	Z28	X29	Y29	Z29	X30	Y30	Z30	X31	Y31	Z31	X32	Y32	Z32	X33	Y33	Z33	X34	Y34	Z34	X35	Y35	Z35	X36	Y36	Z36	X37	Y37	Z37	X38	Y38	Z38	

110	0.4541666666666667	508.533660888672	1162.590698242188	-1249.3662109375	398.1926574707032	1152.762939453125	-1237.626953125	561.0015258789064	1078.392700195313	-1437.192138671875	330.5255737304688	1088.964477539063	-1432.245971679688	629.1675415039064	794.0071411132815	-1309.943359375	612.4425048828126	770.6567382812502	-1363.628540039063	616.1984863281251	710.4477539062501	-1313.727416992188	590.1829223632814	688.3596801757814	-1361.44921875	595.5018920898439	556.9890747070314	-969.8671875000002	602.7324218750001	495.5802307128907	-969.2166748046877	598.2500610351564	529.0718383789064	-918.3953247070315	592.6542968750001	469.1978759765626	-917.549011230469	543.4941406250001	555.2991943359376	-790.142272949219	504.7032775878907	550.3984375000001	-759.6386718750001	567.4225463867189	562.3306884765626	-748.2940673828126	502.7391052246095	479.028778076172	-763.2670288085939	598.1522827148439	505.3145446777345	-742.5362548828126	525.4826660156251	423.7038574218751	-768.9501953125002	526.0217285156251	397.3874816894532	-744.6694335937501	582.2676391601564	389.3099670410157	-757.6730346679689	606.9860839843751	468.0297241210939	-707.1195678710939	523.5247192382814	350.0143737792969	-703.2832031250001	580.1078491210939	340.2214355468751	-707.2720947265626	625.9199829101564	394.9653625488282	-679.2297973632814	574.8884887695314	285.7382812500001	-691.4667358398439	263.2648010253907	802.4219970703127	-1407.633911132813	270.6922912597657	810.0977783203127	-1467.423217773438	276.3680419921876	730.2155761718751	-1452.31689453125	300.4555664062501	739.5160522460939	-1507.822998046875	336.0722961425782	284.7797851562501	-1480.595703125	329.8016662597657	274.5076904296876	-1533.115356445313	341.9956665039063	233.7869567871094	-1506.920288085938	349.3959045410157	228.8980865478516	-1563.352783203125	411.6293334960939	85.78065490722658	-1481.638671875	392.0682678222657	42.71482467651368	-1488.692504882813	448.5002746582032	57.4840545654297	-1491.019775390625	453.1439514160157	103.2988510131836	-1706.850463867188	360.1590270996094	38.72644805908204	-1678.995849609375	
111	0.4583333333333333	509.4814758300782	1157.221801757813	-1262.437377929688	398.9781494140626	1147.556640625	-1250.923706054688	561.3500366210939	1074.28662109375	-1450.899658203125	330.6784362792969	1085.031372070313	-1446.359985351563	630.1200561523439	788.9628906250002	-1325.89892578125	613.8132934570314	766.2504882812501	-1379.9814453125	617.3052368164064	705.3013305664064	-1330.8427734375	591.6722412109376	683.9027099609376	-1379.016967773438	596.9056396484376	557.3692626953126	-990.7168579101565	604.1169433593751	496.0193176269532	-988.7515869140627	599.6049194335939	530.5347900390626	-938.6887817382815	594.0758666992189	470.754364013672	-936.5618896484377	544.5958251953126	559.6486206054689	-811.9807739257815	505.6702575683595	555.6245117187501	-781.623474121094	568.2927246093751	568.0990600585939	-770.2756347656252	502.5588684082032	484.010955810547	-782.7650146484377	599.1696166992189	511.3421630859376	-762.5496826171876	526.9110107421876	428.7239379882814	-786.8149414062502	527.9878540039064	403.4283752441407	-761.6017456054689	583.6917724609376	394.9076538085939	-774.1483154296877	607.9205932617189	475.2551879882814	-725.9661254882814	524.8142089843751	357.1447753906251	-718.7387084960939	581.3467407226564	347.9477233886719	-722.1015014648439	626.9544067382814	403.1851196289064	-695.6721191406251	576.3474731445314	293.4063415527344	-704.5576782226564	264.4771423339844	799.0006103515627	-1422.41845703125	270.6383361816407	806.779479980469	-1482.294555664063	276.7392578125001	726.9154052734376	-1467.407592773438	299.6862182617188	736.3417968750001	-1523.528442382813	336.6725158691407	281.0023498535157	-1491.084838867188	330.2767639160157	269.9690856933594	-1543.379272460938	342.4355773925782	229.8081054687501	-1516.68212890625	350.2228393554688	223.9420928955079	-1572.9052734375	414.8500976562501	86.07952880859376	-1487.919067382813	394.1000366210939	43.01706695556641	-1492.287231445313	450.8732910156251	56.35457992553712	-1495.989868164063	454.6091613769532	92.99185943603517	-1713.062133789063	360.5682067871094	32.30651092529298	-1683.370971679688	
112	0.4625	510.5171508789064	1151.619384765625	-1275.385498046875	399.915985107422	1142.150390625	-1264.261840820313	561.8016967773439	1069.978881835938	-1464.525756835938	330.7935180664063	1081.174682617188	-1460.365478515625	631.2257690429689	783.7990722656252	-1342.054077148438	615.2735595703126	761.7941284179689	-1396.519897460938	618.6837158203126	700.2744140625001	-1348.167724609375	593.0653076171876	679.5127563476564	-1396.720947265625	598.3774414062501	557.6096191406251	-1011.850769042969	605.5698852539064	496.2356872558595	-1008.604125976563	601.0423583984376	531.8947143554689	-959.2297363281252	595.4813842773439	472.0965576171876	-955.842956542969	545.7017211914064	563.7034301757814	-834.1665039062502	506.609100341797	560.3923950195314	-803.9282226562502	569.1581420898439	573.5789184570314	-792.5977172851565	505.294403076172	488.6121826171876	-803.2337036132815	600.2008056640626	517.0307006835939	-783.1348266601565	528.3927001953126	433.3272705078126	-805.273864746094	529.4688110351564	408.9383850097657	-779.3479614257815	585.1044921875001	400.1597290039064	-791.1630859375002	608.8032226562501	482.102264404297	-745.3013305664064	525.9765625000001	363.9359436035157	-735.0646972656251	582.6776123046876	354.8009338378907	-737.8204345703126	627.8560791015626	411.0326232910157	-712.7278442382814	577.7926025390626	300.8682861328126	-718.5775756835939	265.3529968261719	795.0547485351565	-1437.292114257813	270.4013671875001	803.3587646484377	-1497.140014648438	277.0742492675782	723.1859741210939	-1482.672973632813	298.8316345214844	732.7568359375001	-1539.2646484375	337.0314025878907	277.4206848144532	-1500.975708007813	331.1256713867188	265.1749267578126	-1553.083740234375	343.1156921386719	225.6082000732422	-1525.615966796875	351.8339233398438	218.5951232910157	-1581.315551757813	419.1190185546876	86.02117156982423	-1492.14501953125	396.2256774902345	43.02862548828126	-1494.952270507813	453.4629516601564	54.2384376525879	-1499.423217773438	455.7967529296876	81.83635711669923	-1718.190551757813	359.7709960937501	28.51011466979981	-1685.991821289063	
113	0.4666666666666667	511.6845092773439	1145.79736328125	-1288.225708007813	400.9006347656251	1136.719970703125	-1277.315063476563	562.3267211914064	1065.486694335938	-1478.141967773438	331.3352355957032	1076.615234375	-1472.937255859375	632.3609619140626	778.6477050781252	-1358.39111328125	616.7608642578126	757.3298339843751	-1413.258178710938	620.0430297851564	695.1692504882814	-1365.699951171875	594.7399902343751	675.0231933593751	-1414.660522460938	599.7964477539064	557.6165771484376	-1033.168823242188	607.2613525390626	496.5130310058595	-1028.664794921875	602.4926147460939	533.0447387695314	-980.0079345703127	596.8023071289064	473.3037719726564	-975.5135498046877	546.8105468750001	567.4685058593751	-856.6020507812502	507.4630432128907	564.7647094726564	-826.3892822265627	569.9483642578126	578.5361938476564	-815.122985839844	506.2930908203126	493.3103942871095	-823.6407470703127	601.0991210937501	522.3041381835939	-803.8833007812502	529.7244873046876	437.827606201172	-824.2578125000002	530.4999389648439	414.3444213867189	-797.2502441406252	586.4271850585939	405.1368408203126	-808.8732910156252	609.5651855468751	488.415496826172	-765.1004028320314	527.1042480468751	370.2252502441407	-752.1920166015626	583.9503784179689	361.3215942382813	-754.3833007812501	628.7492065429689	418.3510742187501	-730.5930786132814	579.0433959960939	307.6376953125001	-733.6710205078126	265.9127197265626	790.9924926757815	-1452.206787109375	269.6494445800782	799.458190917969	-1512.021606445313	277.1309509277344	719.2930908203126	-1497.826416015625	297.9451599121094	729.1222534179689	-1554.771850585938	337.5789489746094	274.0483703613282	-1509.773559570313	332.7492065429688	260.2773437500001	-1561.966796875	344.8746032714844	221.4903259277344	-1533.039794921875	354.7783203125001	213.4480743408204	-1588.53125	422.6190795898439	84.63384246826173	-1495.097534179688	398.2468261718751	42.65382766723634	-1496.787719726563	455.7203369140626	51.32519912719728	-1501.501220703125	458.428680419922	72.72231292724611	-1721.664306640625	359.7675781250001	27.46408843994141	-1687.800903320313	
